<svg xmlns="http://www.w3.org/2000/svg" width="350" height="200" fill="none">
  <g clip-path="url(#a)">
    <path fill="#fff" d="M0 0h350v200H0z"/>
    <path fill="#414042" d="M60.033 148.401a6.91 6.91 0 0 0-.84-1.737 5.361 5.361 0 0 0-1.224-1.324 5.144 5.144 0 0 0-1.6-.835 6.405 6.405 0 0 0-1.968-.288c-1.17 0-2.234.301-3.192.902-.958.601-1.72 1.487-2.286 2.658-.565 1.171-.848 2.607-.848 4.308 0 1.702.286 3.139.858 4.309.572 1.171 1.347 2.057 2.324 2.657.977.602 2.077.902 3.298.902 1.132 0 2.128-.24 2.99-.719a5.11 5.11 0 0 0 2.025-2.054c.488-.889.733-1.934.733-3.137l.733.153h-5.94v-2.111h7.521v2.111c0 1.619-.347 3.026-1.041 4.222a7.174 7.174 0 0 1-2.855 2.783c-1.208.652-2.597.979-4.166.979-1.748 0-3.285-.41-4.61-1.229-1.317-.819-2.346-1.983-3.085-3.492-.733-1.51-1.1-3.301-1.1-5.374 0-1.554.21-2.952.627-4.193.425-1.247 1.023-2.309 1.794-3.186a7.846 7.846 0 0 1 2.739-2.015c1.054-.467 2.215-.7 3.481-.7 1.041 0 2.012.157 2.912.47a7.81 7.81 0 0 1 2.42 1.315 7.476 7.476 0 0 1 1.785 2.024c.475.781.803 1.647.983 2.601h-2.468Zm6.68 13.51v-19.652h11.92v2.111h-9.528v6.641h8.91v2.111h-8.91v6.678h9.682v2.111H66.713Zm31.89-19.652v19.652H96.29l-10.761-15.43h-.194v15.43h-2.391v-19.652h2.314l10.801 15.469h.193v-15.469h2.353Zm4.786 19.652v-19.652h11.92v2.111h-9.528v6.641h8.91v2.111h-8.91v6.678h9.682v2.111h-12.074Zm16.23 0v-19.652h6.673c1.543 0 2.81.263 3.8.787.99.518 1.723 1.232 2.199 2.14.475.909.713 1.942.713 3.099 0 1.158-.238 2.185-.713 3.081-.476.895-1.206 1.599-2.19 2.111-.983.505-2.24.758-3.77.758h-5.4v-2.15h5.323c1.054 0 1.903-.153 2.546-.46.649-.307 1.118-.742 1.408-1.305.295-.57.443-1.248.443-2.035 0-.786-.148-1.474-.443-2.063-.296-.588-.769-1.042-1.418-1.362-.649-.326-1.508-.49-2.575-.49h-4.204v17.541h-2.392Zm9.296-8.828 4.861 8.828h-2.778l-4.783-8.828h2.7Zm10.466-10.824v19.652h-2.392v-19.652h2.392Zm20.687 6.142h-2.391a4.932 4.932 0 0 0-.743-1.804 4.896 4.896 0 0 0-1.273-1.305 5.386 5.386 0 0 0-1.649-.806 6.582 6.582 0 0 0-1.89-.269c-1.196 0-2.279.301-3.25.902-.964.601-1.732 1.487-2.304 2.658-.566 1.171-.849 2.607-.849 4.308 0 1.702.283 3.139.849 4.309.572 1.171 1.34 2.057 2.304 2.657.971.602 2.054.902 3.25.902.656 0 1.286-.089 1.89-.269a5.502 5.502 0 0 0 1.649-.796 5.027 5.027 0 0 0 2.016-3.118h2.391c-.18 1.005-.508 1.903-.983 2.697a7.4 7.4 0 0 1-1.775 2.025 7.783 7.783 0 0 1-2.382 1.256 8.91 8.91 0 0 1-2.806.432c-1.684 0-3.182-.41-4.494-1.229-1.311-.819-2.343-1.983-3.095-3.492-.752-1.51-1.128-3.301-1.128-5.374 0-2.072.376-3.864 1.128-5.373.752-1.51 1.784-2.674 3.095-3.493 1.312-.819 2.81-1.228 4.494-1.228a8.91 8.91 0 0 1 2.806.432c.881.287 1.675.71 2.382 1.266a7.243 7.243 0 0 1 1.775 2.015c.475.787.803 1.686.983 2.697Zm27.395 0h-2.392a4.948 4.948 0 0 0-2.015-3.109 5.408 5.408 0 0 0-1.649-.806 6.594 6.594 0 0 0-1.891-.269c-1.195 0-2.278.301-3.249.902-.965.601-1.733 1.487-2.305 2.658-.566 1.171-.849 2.607-.849 4.308 0 1.702.283 3.139.849 4.309.572 1.171 1.34 2.057 2.305 2.657.971.602 2.054.902 3.249.902.656 0 1.286-.089 1.891-.269a5.526 5.526 0 0 0 1.649-.796 5.053 5.053 0 0 0 1.273-1.314c.353-.524.6-1.126.742-1.804h2.392c-.181 1.005-.508 1.903-.984 2.697a7.397 7.397 0 0 1-1.774 2.025 7.783 7.783 0 0 1-2.382 1.256 8.92 8.92 0 0 1-2.807.432c-1.684 0-3.182-.41-4.493-1.229-1.312-.819-2.343-1.983-3.096-3.492-.752-1.51-1.128-3.301-1.128-5.374 0-2.072.376-3.864 1.128-5.373.753-1.51 1.784-2.674 3.096-3.493 1.311-.819 2.809-1.228 4.493-1.228a8.92 8.92 0 0 1 2.807.432c.881.287 1.675.71 2.382 1.266a7.24 7.24 0 0 1 1.774 2.015c.476.787.803 1.686.984 2.697Zm20.528 3.684c0 2.073-.376 3.864-1.128 5.374-.753 1.509-1.785 2.673-3.096 3.492-1.311.819-2.809 1.229-4.494 1.229-1.684 0-3.182-.41-4.493-1.229-1.312-.819-2.344-1.983-3.095-3.492-.753-1.51-1.129-3.301-1.129-5.374 0-2.072.376-3.864 1.129-5.373.751-1.51 1.783-2.674 3.095-3.493 1.311-.819 2.809-1.228 4.493-1.228 1.685 0 3.183.409 4.494 1.228s2.343 1.983 3.096 3.493c.752 1.509 1.128 3.301 1.128 5.373Zm-2.315 0c0-1.701-.285-3.137-.857-4.308-.566-1.171-1.335-2.057-2.305-2.658-.965-.601-2.044-.902-3.241-.902-1.196 0-2.278.301-3.25.902-.964.601-1.732 1.487-2.305 2.658-.565 1.171-.848 2.607-.848 4.308 0 1.702.283 3.139.848 4.309.573 1.171 1.341 2.057 2.305 2.657.972.602 2.054.902 3.25.902 1.197 0 2.276-.3 3.241-.902.97-.6 1.739-1.486 2.305-2.657.572-1.17.857-2.607.857-4.309Zm6.336-9.826h2.854l6.713 16.313h.232l6.711-16.313h2.854v19.652h-2.237V146.98h-.192l-6.173 14.931h-2.16l-6.171-14.931h-.193v14.931h-2.238v-19.652Zm24.16 19.652v-19.652h6.673c1.549 0 2.816.279 3.799.835.991.55 1.723 1.296 2.199 2.236.476.94.713 1.99.713 3.147 0 1.158-.237 2.211-.713 3.157-.47.947-1.196 1.702-2.179 2.265-.984.556-2.245.835-3.781.835H238.1v-2.111h4.706c1.062 0 1.912-.183 2.555-.547.644-.365 1.109-.858 1.399-1.478.295-.627.443-1.334.443-2.121 0-.786-.148-1.49-.443-2.111-.29-.62-.758-1.106-1.408-1.458-.649-.358-1.511-.538-2.584-.538h-4.205v17.541h-2.391Zm16.032 0h-2.508l7.252-19.652h2.469l7.251 19.652h-2.506l-5.902-16.543h-.154l-5.902 16.543Zm.925-7.676h10.107v2.11h-10.107v-2.11Zm32.277-11.976v19.652h-2.315l-10.762-15.43h-.192v15.43h-2.392v-19.652h2.314l10.802 15.469h.191v-15.469h2.354Zm3.088 0h2.739l5.478 9.174h.23l5.478-9.174h2.739l-7.136 11.553v8.099h-2.392v-8.099l-7.136-11.553ZM94.049 170.55v-.926h6.496v.926h-2.724v7.693h-1.048v-7.693h-2.724Zm8.115 7.693v-8.619h1.048v3.838h4.619v-3.838h1.048v8.619h-1.048v-3.855h-4.619v3.855h-1.048Zm9.17 0h-1.099l3.18-8.619h1.083l3.18 8.619h-1.1l-2.588-7.255h-.067l-2.589 7.255Zm.406-3.367h4.432v.926h-4.432v-.926Zm5.802-4.326v-.926h6.495v.926h-2.723v7.693h-1.049v-7.693h-2.723Zm14.136 7.693h-2.672v-8.619h2.791c.84 0 1.559.172 2.157.517a3.404 3.404 0 0 1 1.374 1.478c.319.64.478 1.406.478 2.297 0 .898-.161 1.671-.482 2.319a3.43 3.43 0 0 1-1.404 1.49c-.615.345-1.362.518-2.242.518Zm-1.624-.926h1.557c.716 0 1.309-.138 1.78-.413a2.54 2.54 0 0 0 1.053-1.173c.231-.509.347-1.113.347-1.815 0-.695-.114-1.294-.343-1.796a2.512 2.512 0 0 0-1.023-1.161c-.454-.272-1.019-.409-1.696-.409h-1.675v6.767Zm14.819-3.384c0 .909-.165 1.695-.495 2.357-.33.663-.782 1.172-1.357 1.532-.575.359-1.232.538-1.971.538-.739 0-1.396-.179-1.971-.538-.575-.36-1.027-.869-1.357-1.532-.33-.662-.495-1.448-.495-2.357 0-.908.165-1.694.495-2.356.33-.663.782-1.172 1.357-1.532.575-.359 1.232-.538 1.971-.538.739 0 1.396.179 1.971.538.575.36 1.027.869 1.357 1.532.33.662.495 1.448.495 2.356Zm-1.015 0c0-.746-.125-1.375-.376-1.889-.248-.513-.585-.902-1.011-1.165a2.622 2.622 0 0 0-1.421-.397c-.524 0-.999.132-1.425.397-.423.263-.76.652-1.011 1.165-.248.514-.372 1.143-.372 1.889 0 .747.124 1.376.372 1.89.251.513.588.902 1.011 1.165.426.265.901.396 1.425.396s.998-.131 1.421-.396c.426-.263.763-.652 1.011-1.165.251-.514.376-1.143.376-1.89Zm2.779 4.31v-8.619h5.227v.926h-4.179v2.912h3.908v.926h-3.908v2.929h4.246v.926h-5.294Zm11.854-6.464a1.324 1.324 0 0 0-.618-.994c-.361-.235-.803-.353-1.328-.353-.383 0-.719.062-1.006.186a1.594 1.594 0 0 0-.668.508 1.218 1.218 0 0 0-.237.738c0 .229.055.428.165.592.112.163.256.299.431.408.175.107.358.195.55.266.192.067.368.121.529.164l.879.235c.226.059.477.141.753.245.279.103.545.245.799.424.257.178.468.404.635.682.166.278.249.619.249 1.023 0 .466-.122.886-.368 1.263-.242.375-.598.674-1.066.895-.465.223-1.03.333-1.695.333-.621 0-1.158-.1-1.612-.299a2.546 2.546 0 0 1-1.065-.833 2.364 2.364 0 0 1-.436-1.242h1.083c.028.326.138.596.33.809.194.21.439.367.735.471.299.102.621.152.965.152.4 0 .759-.065 1.078-.194.319-.132.571-.315.757-.548.186-.235.279-.509.279-.824 0-.286-.08-.519-.241-.698a1.764 1.764 0 0 0-.634-.438 6.712 6.712 0 0 0-.85-.295l-1.066-.303c-.677-.194-1.212-.47-1.607-.828-.395-.36-.592-.83-.592-1.41 0-.482.131-.904.393-1.263.265-.362.62-.643 1.066-.841a3.614 3.614 0 0 1 1.501-.303c.558 0 1.055.1 1.489.299.434.196.778.464 1.032.807.256.342.392.731.406 1.166h-1.015Zm12.128.539a3.06 3.06 0 0 0-.368-.762 2.404 2.404 0 0 0-.537-.581 2.278 2.278 0 0 0-.702-.366 2.82 2.82 0 0 0-.863-.127c-.513 0-.98.132-1.4.397-.42.263-.754.652-1.002 1.165-.248.514-.372 1.143-.372 1.889 0 .747.125 1.376.376 1.89.251.513.591.902 1.019 1.165.429.265.911.396 1.447.396.496 0 .933-.105 1.311-.316.38-.213.676-.513.888-.9.214-.39.321-.848.321-1.376l.321.067h-2.605v-.926h3.299v.926c0 .71-.152 1.327-.457 1.851a3.133 3.133 0 0 1-1.251 1.221c-.531.287-1.139.429-1.827.429-.767 0-1.441-.179-2.022-.538-.578-.36-1.029-.869-1.353-1.532-.322-.662-.482-1.448-.482-2.357 0-.682.091-1.294.274-1.839a4.105 4.105 0 0 1 .787-1.397 3.444 3.444 0 0 1 1.201-.883 3.743 3.743 0 0 1 1.527-.307c.457 0 .882.068 1.277.205.398.136.751.328 1.062.577a3.354 3.354 0 0 1 1.213 2.029h-1.082Zm2.929 5.925v-8.619h5.227v.926h-4.178v2.912h3.908v.926h-3.908v2.929h4.246v.926h-5.295Zm13.986-8.619v8.619h-1.015l-4.72-6.766h-.085v6.766h-1.048v-8.619h1.015l4.736 6.783h.085v-6.783h1.032Zm2.098 8.619v-8.619h5.228v.926h-4.178v2.912h3.907v.926h-3.907v2.929h4.246v.926h-5.296Zm7.118 0v-8.619h2.927c.676 0 1.232.116 1.666.345.434.228.755.541.965.939.207.399.312.852.312 1.359 0 .508-.105.958-.312 1.35-.21.394-.53.702-.961.927-.431.222-.982.332-1.653.332h-2.368v-.943h2.334c.462 0 .835-.067 1.117-.201.284-.136.489-.325.616-.573.13-.25.195-.546.195-.892 0-.345-.065-.647-.195-.905a1.325 1.325 0 0 0-.62-.598c-.286-.142-.662-.214-1.13-.214h-1.844v7.693h-1.049Zm4.077-3.872 2.132 3.872h-1.219l-2.097-3.872h1.184Zm4.59-4.747v8.619h-1.049v-8.619h1.049Zm9.072 2.694h-1.049a2.164 2.164 0 0 0-.326-.791 2.144 2.144 0 0 0-.558-.573 2.384 2.384 0 0 0-.723-.353 2.885 2.885 0 0 0-.829-.119c-.524 0-.999.132-1.425.397-.422.263-.76.652-1.011 1.165-.248.514-.372 1.143-.372 1.889 0 .747.124 1.376.372 1.89.251.513.589.902 1.011 1.165.426.265.901.396 1.425.396.288 0 .564-.039.829-.118.265-.078.506-.195.723-.349a2.205 2.205 0 0 0 .884-1.368h1.049a3.445 3.445 0 0 1-.431 1.182 3.263 3.263 0 0 1-.778.889 3.398 3.398 0 0 1-1.046.55c-.382.127-.792.19-1.23.19-.739 0-1.395-.179-1.97-.538-.576-.36-1.029-.869-1.358-1.532-.33-.662-.495-1.448-.495-2.357 0-.908.165-1.694.495-2.356.329-.663.782-1.172 1.358-1.532.575-.359 1.231-.538 1.97-.538.438 0 .848.063 1.23.189a3.37 3.37 0 0 1 1.046.556c.309.241.569.536.778.884.209.345.352.738.431 1.182Zm9.78-.539a1.32 1.32 0 0 0-.616-.994c-.362-.235-.804-.353-1.329-.353a2.53 2.53 0 0 0-1.006.186 1.594 1.594 0 0 0-.668.508 1.212 1.212 0 0 0-.237.738c0 .229.055.428.164.592.114.163.257.299.432.408.174.107.358.195.55.266.192.067.368.121.528.164l.88.235c.226.059.477.141.753.245.279.103.545.245.799.424.257.178.469.404.634.682.167.278.25.619.25 1.023 0 .466-.123.886-.368 1.263-.242.375-.598.674-1.065.895-.466.223-1.031.333-1.696.333-.621 0-1.158-.1-1.612-.299a2.546 2.546 0 0 1-1.065-.833 2.354 2.354 0 0 1-.435-1.242h1.082c.028.326.138.596.329.809.195.21.441.367.736.471.299.102.621.152.965.152.399 0 .759-.065 1.078-.194.319-.132.571-.315.757-.548.187-.235.279-.509.279-.824 0-.286-.08-.519-.241-.698a1.751 1.751 0 0 0-.635-.438 6.696 6.696 0 0 0-.849-.295l-1.065-.303c-.678-.194-1.214-.47-1.608-.828-.394-.36-.592-.83-.592-1.41 0-.482.131-.904.393-1.263a2.602 2.602 0 0 1 1.066-.841 3.61 3.61 0 0 1 1.501-.303c.559 0 1.055.1 1.489.299.434.196.778.464 1.032.807.257.342.392.731.406 1.166h-1.016Zm2.385-1.229v-.926h6.495v.926h-2.723v7.693h-1.049v-7.693h-2.723Zm13.798-.926h1.05v5.706a3 3 0 0 1-.42 1.579c-.276.46-.667.823-1.171 1.089-.504.265-1.097.396-1.776.396-.68 0-1.271-.131-1.777-.396a2.952 2.952 0 0 1-1.175-1.089 3.023 3.023 0 0 1-.414-1.579v-5.706h1.048v5.622c0 .422.094.795.279 1.125.187.325.452.582.796.769.346.185.76.277 1.243.277.482 0 .896-.092 1.243-.277.347-.187.613-.444.795-.769.187-.33.279-.703.279-1.125v-5.622Zm3.143 8.619v-8.619h5.194v.926h-4.145v2.912h3.756v.926h-3.756v3.855h-1.049Zm6.991 0v-8.619h5.192v.926h-4.144v2.912h3.755v.926h-3.755v3.855h-1.048Z"/>
    <path fill="url(#b)" d="M218.753 23.403c-18.309 0-34.427 9.306-43.856 23.42l-.004-.006a49.842 49.842 0 0 0-1.088 1.7c-.085.137-.164.278-.247.416-.319.53-.629 1.066-.929 1.609l-.295.54c-.318.59-.625 1.185-.92 1.788-.044.088-.089.174-.131.262a52.815 52.815 0 0 0-.991 2.18l-.114.276c-.27.64-.525 1.287-.769 1.94l-.165.45a50.02 50.02 0 0 0-.737 2.168c-.007.022-.016.044-.023.068a51.155 51.155 0 0 0-.67 2.35c-.035.13-.065.263-.098.393a52.633 52.633 0 0 0-.453 1.954c-.038.181-.077.362-.114.544a49.354 49.354 0 0 0-.291 1.59h-18.279l-17.543 17.456h33.98a34.728 34.728 0 0 1-3.092 7.856 35.123 35.123 0 0 1-30.888 18.329c-19.375 0-35.088-15.634-35.088-34.914 0-19.279 15.713-34.914 35.088-34.914a35.124 35.124 0 0 1 30.888 18.33 58.13 58.13 0 0 1 7.5-16.006c.417-.622.834-1.233 1.272-1.833-9.639-10.998-23.828-17.947-39.66-17.947-29.068 0-52.632 23.447-52.632 52.37s23.564 52.37 52.632 52.37c15.811 0 29.988-6.928 39.638-17.914a51.483 51.483 0 0 0 4.221-5.499l.004-.005c9.43 14.114 25.548 23.42 43.856 23.42 29.068 0 52.632-23.446 52.632-52.37 0-28.925-23.567-52.371-52.634-52.371Zm0 87.284c-19.375 0-35.088-15.634-35.088-34.914 0-.688.025-1.373.064-2.054.012-.21.032-.42.048-.63a32.85 32.85 0 0 1 .447-3.501c.036-.202.069-.405.109-.606.129-.653.272-1.3.438-1.937 3.895-15.057 17.634-26.186 33.98-26.186 19.375 0 35.089 15.636 35.089 34.914 0 19.279-15.713 34.914-35.087 34.914Z"/>
    <path fill="url(#c)" d="M218.753 104.366c15.869 0 28.735-12.801 28.735-28.593 0-15.791-12.866-28.592-28.735-28.592-15.87 0-28.736 12.801-28.736 28.592 0 15.792 12.866 28.593 28.736 28.593Z"/>
  </g>
  <defs>
    <linearGradient id="b" x1="137.608" x2="211.623" y1="11.514" y2="140.352" gradientUnits="userSpaceOnUse">
      <stop stop-color="#68ACFF"/>
      <stop offset=".229" stop-color="#65A7FF"/>
      <stop offset=".498" stop-color="#5B99FF"/>
      <stop offset=".787" stop-color="#4A81FF"/>
      <stop offset="1" stop-color="#3B6BFF"/>
    </linearGradient>
    <linearGradient id="c" x1="204.382" x2="232.909" y1="51.007" y2="100.663" gradientUnits="userSpaceOnUse">
      <stop stop-color="#EFCF64"/>
      <stop offset="1" stop-color="#FF7159"/>
    </linearGradient>
    <clipPath id="a">
      <path fill="#fff" d="M0 0h350v200H0z"/>
    </clipPath>
  </defs>
</svg>
